<?xml version="1.0" encoding="utf-8"?>
<!-- Generator: Adobe Illustrator 25.2.1, SVG Export Plug-In . SVG Version: 6.00 Build 0)  -->
<svg version="1.1" id="Capa_1" xmlns="http://www.w3.org/2000/svg" xmlns:xlink="http://www.w3.org/1999/xlink" x="0px" y="0px"
	 viewBox="0 0 200 200" style="enable-background:new 0 0 200 200;" xml:space="preserve">
<style type="text/css">
	.st0{fill:#E02020;}
</style>
<g>
	<g>
		<path d="M27.18,139.34v9.43c-2.11,1.64-4.5,2.48-7.04,2.48c-5.93,0-10.58-4.71-10.58-10.67c0-5.89,4.62-10.55,10.48-10.55
			c1.89,0,3.94,0.53,5.46,1.4l-0.65,3.26c-1.33-0.84-3.44-1.43-5.15-1.43c-3.63,0-6.51,3.38-6.51,7.57s2.98,7.41,6.86,7.41
			c1.55,0,3.1-0.4,3.88-1.02v-4.87H18.8l0.65-3.01H27.18z"/>
		<path d="M35.15,130.31c1.95,0,3.32,0.28,4.44,0.9c1.89,1.05,2.98,2.95,2.98,5.21c0,2.92-1.77,5.24-4.78,6.3l4.87,6.64l-2.7,1.83
			l-6.11-8.34V151H30.5v-20.69H35.15z M35.15,139.81c1.12,0,1.46-0.03,1.92-0.22c1.18-0.46,1.89-1.67,1.89-3.2
			c0-1.89-1.24-3.01-3.35-3.01h-1.74v6.42H35.15z"/>
		<path d="M66.24,140.61c0,2.95-1.3,5.89-3.51,7.97c-2.02,1.92-4.62,2.92-7.57,2.92c-5.99,0-10.64-4.78-10.64-10.95
			c0-2.67,1.12-5.46,3.07-7.57c1.89-2.05,4.75-3.26,7.69-3.26C61.31,129.72,66.24,134.62,66.24,140.61z M48.12,140.61
			c0,2.45,0.81,4.37,2.45,5.8c1.33,1.18,3.07,1.83,4.78,1.83c4.13,0,7.26-3.29,7.26-7.57c0-4.31-3.16-7.69-7.23-7.69
			C51.29,132.98,48.12,136.3,48.12,140.61z"/>
		<path d="M72.29,130.31v13.8c0,1.43,0.09,2.08,0.37,2.61c0.5,1.02,1.49,1.58,2.73,1.58c1.36,0,2.39-0.65,2.85-1.83
			c0.31-0.78,0.34-1.12,0.34-3.13v-13.03h3.32v13.43c0,2.05-0.15,3.13-0.62,4.13c-1.02,2.23-3.23,3.6-5.83,3.6
			c-2.61,0-4.9-1.46-5.93-3.75c-0.47-0.99-0.59-1.92-0.59-4.03v-13.37H72.29z"/>
		<path d="M86.13,129.91l10.79,12.78v-12.44h3.29v21.09h-0.56l-10.83-12.97V151h-3.38v-21.09H86.13z"/>
		<path d="M108.56,130.38c1.8,0,3.13,0.25,4.5,0.87c3.6,1.64,6.02,5.49,6.02,9.62c0,4.34-2.54,8.1-6.45,9.46
			c-1.4,0.5-2.61,0.68-4.31,0.68h-4.37v-20.63H108.56z M108,147.9c1.12,0,1.86-0.09,2.64-0.34c2.95-0.9,4.93-3.63,4.93-6.79
			c0-3.38-2.23-6.27-5.46-7.07c-0.74-0.19-1.27-0.25-2.36-0.25h-0.46l-0.03,14.46H108z"/>
		<path d="M140.08,130.28l-6.73,17.62h6.27v3.1H128.7l6.61-17.56h-5.77l0.75-3.07L140.08,130.28z"/>
		<path d="M150.57,130.31l0.65,3.16h-5.4v6.17h5.89v3.04h-5.89v5.21h5.4v3.1h-8.78v-8.31h-1.3v-3.07h1.3v-9.31H150.57z"/>
		<path d="M159.51,130.31c1.95,0,3.32,0.28,4.44,0.9c1.89,1.05,2.98,2.95,2.98,5.21c0,2.92-1.77,5.24-4.78,6.3l4.87,6.64l-2.7,1.83
			l-6.11-8.34V151h-3.35v-20.69H159.51z M159.51,139.81c1.12,0,1.46-0.03,1.92-0.22c1.18-0.46,1.89-1.67,1.89-3.2
			c0-1.89-1.24-3.01-3.35-3.01h-1.74v6.42H159.51z"/>
		<path d="M190.59,140.61c0,2.95-1.3,5.89-3.5,7.97c-2.02,1.92-4.62,2.92-7.57,2.92c-5.99,0-10.64-4.78-10.64-10.95
			c0-2.67,1.12-5.46,3.07-7.57c1.89-2.05,4.75-3.26,7.69-3.26C185.66,129.72,190.59,134.62,190.59,140.61z M172.48,140.61
			c0,2.45,0.81,4.37,2.45,5.8c1.33,1.18,3.07,1.83,4.78,1.83c4.13,0,7.26-3.29,7.26-7.57c0-4.31-3.16-7.69-7.23-7.69
			C175.64,132.98,172.48,136.3,172.48,140.61z"/>
	</g>
	<g>
		<path d="M57.92,173.59h-7.26l-1.56,3.48h-1.43l5.96-13.03h1.36l5.96,13.03h-1.45L57.92,173.59z M57.42,172.47l-3.13-7l-3.13,7
			H57.42z"/>
		<path d="M67.75,167.2v1.28c-0.11,0-0.22-0.02-0.32-0.02c-2.05,0-3.29,1.3-3.29,3.61v4.99h-1.32v-9.79h1.27v1.92
			C64.7,167.89,65.94,167.2,67.75,167.2z"/>
		<path d="M75.72,176.47c-0.52,0.47-1.3,0.69-2.07,0.69c-1.84,0-2.87-1.04-2.87-2.85v-5.92h-1.75v-1.12h1.75v-2.14h1.32v2.14h2.98
			v1.12H72.1v5.84c0,1.15,0.6,1.79,1.69,1.79c0.54,0,1.08-0.17,1.45-0.5L75.72,176.47z"/>
		<path d="M77.82,164.19c0-0.5,0.43-0.93,0.97-0.93s0.97,0.41,0.97,0.91c0,0.54-0.41,0.97-0.97,0.97
			C78.25,165.14,77.82,164.71,77.82,164.19z M78.12,167.28h1.32v9.79h-1.32V167.28z"/>
		<path d="M81.77,175.95l0.6-1.04c0.78,0.61,2.1,1.1,3.48,1.1c1.86,0,2.62-0.63,2.62-1.6c0-2.55-6.35-0.54-6.35-4.41
			c0-1.6,1.38-2.79,3.87-2.79c1.27,0,2.64,0.35,3.46,0.91l-0.58,1.06c-0.86-0.6-1.88-0.84-2.89-0.84c-1.77,0-2.55,0.69-2.55,1.62
			c0,2.64,6.35,0.65,6.35,4.41c0,1.69-1.49,2.79-4.04,2.79C84.13,177.16,82.57,176.64,81.77,175.95z"/>
		<path d="M97.38,176.47c-0.52,0.47-1.3,0.69-2.07,0.69c-1.84,0-2.87-1.04-2.87-2.85v-5.92H90.7v-1.12h1.75v-2.14h1.32v2.14h2.98
			v1.12h-2.98v5.84c0,1.15,0.6,1.79,1.69,1.79c0.54,0,1.08-0.17,1.45-0.5L97.38,176.47z"/>
		<path d="M114.12,170.55h1.32v4.97c-1.23,1.1-2.98,1.66-4.78,1.66c-3.96,0-6.87-2.81-6.87-6.63s2.9-6.63,6.89-6.63
			c1.97,0,3.69,0.63,4.84,1.88l-0.86,0.88c-1.1-1.08-2.4-1.53-3.93-1.53c-3.22,0-5.58,2.29-5.58,5.4c0,3.09,2.36,5.4,5.57,5.4
			c1.25,0,2.4-0.28,3.41-1V170.55z"/>
		<path d="M127.88,167.28v9.79h-1.27v-1.79c-0.69,1.19-1.96,1.88-3.52,1.88c-2.5,0-4.13-1.4-4.13-4.21v-5.68h1.32v5.55
			c0,2.08,1.08,3.15,2.94,3.15c2.05,0,3.33-1.32,3.33-3.56v-5.14H127.88z"/>
		<path d="M131.28,164.19c0-0.5,0.43-0.93,0.97-0.93c0.54,0,0.97,0.41,0.97,0.91c0,0.54-0.41,0.97-0.97,0.97
			C131.71,165.14,131.28,164.71,131.28,164.19z M131.58,167.28h1.32v9.79h-1.32V167.28z"/>
		<path d="M136.59,163.26h1.32v13.81h-1.32V163.26z"/>
		<path d="M150.53,163.26v13.81h-1.27v-1.94c-0.8,1.32-2.16,2.03-3.78,2.03c-2.79,0-4.88-2.03-4.88-4.99s2.08-4.97,4.88-4.97
			c1.56,0,2.9,0.67,3.72,1.94v-5.88H150.53z M149.23,172.17c0-2.29-1.56-3.82-3.63-3.82c-2.08,0-3.65,1.53-3.65,3.82
			c0,2.29,1.56,3.82,3.65,3.82C147.67,175.99,149.23,174.46,149.23,172.17z"/>
	</g>
	<g>
		<g>
			<path d="M143.8,61.36c-0.01-0.08-0.01-0.15-0.02-0.22h-43.03v9.75h31.39c-0.96,7.84-2.3,12.31-5.82,17.04
				c-4.11,5.93-10.92,10.37-18.24,12.26c-2.55,0.65-5.15,1.01-7.74,1.01c-18.41,0-32.61-15.83-32.61-36.27
				c0-20.7,14.2-36.39,32.88-36.39c6.49,0,12.86,2.03,17.86,5.69c2.44,1.62,4.05,3.24,7.58,7.16l8.53-6.89
				c-8.53-10.69-20.31-16.38-33.96-16.38c-25.85,0-44.52,19.62-44.52,46.96c0,26.93,18.8,46.54,44.52,46.54
				c0.51,0,1.02-0.01,1.52-0.03c6.69-0.21,12.88-1.81,18.45-4.73h-0.39L143.8,61.36z"/>
		</g>
		<g>
			<path class="st0" d="M143.92,61.14h-43.59v11.17h22.27l-14.51,27.88l-5.94,11.39l-3.35,6.44h42.98v-11.17h-21.57l23.6-45.49
				L143.92,61.14z"/>
		</g>
	</g>
</g>
</svg>
